<!-- icon666.com - MILLIONS vector ICONS FREE --><svg id="Capa_1" enable-background="new 0 0 512.147 512.147" viewBox="0 0 512.147 512.147" xmlns="http://www.w3.org/2000/svg"><g><path d="m452.561 216.018c-4.143 0-7.5 3.358-7.5 7.5v198.87c0 1.872-.337 3.662-.927 5.335l-162.57-133.809 112.023-78.772c3.388-2.383 4.203-7.061 1.82-10.449-2.381-3.388-7.058-4.203-10.449-1.821l-134.025 94.244c-12.5 8.791-29.299 8.792-41.803 0l-193.71-136.213c1.641-7.15 8.042-12.503 15.683-12.503h57.09c4.143 0 7.5-3.358 7.5-7.5s-3.357-7.5-7.5-7.5h-57.09c-17.077 0-30.98 13.835-31.098 30.886-.001.041-.002.083-.003.124 0 .031-.002.062-.002.093v257.885c0 17.15 13.953 31.104 31.104 31.104h299.405c4.143 0 7.5-3.358 7.5-7.5s-3.357-7.5-7.5-7.5h-299.405c-1.387 0-2.727-.195-4.012-.526l164.137-135.099 9.272 6.52c8.832 6.21 19.182 9.315 29.53 9.315 10.35 0 20.699-3.105 29.53-9.315l9.273-6.521 164.139 135.1c-1.286.332-2.626.527-4.015.527h-66.487c-4.143 0-7.5 3.358-7.5 7.5s3.357 7.5 7.5 7.5h66.487c17.15 0 31.103-13.953 31.103-31.104v-198.87c0-4.143-3.358-7.501-7.5-7.501zm-436.633 211.707c-.59-1.673-.928-3.464-.928-5.337v-243.442l163.499 114.969z"></path><path d="m120.155 148.4h226.981c4.143 0 7.5-3.358 7.5-7.5s-3.357-7.5-7.5-7.5h-226.981c-4.143 0-7.5 3.358-7.5 7.5s3.358 7.5 7.5 7.5z"></path><path d="m506.272 101.809c-1.646-3.802-6.062-5.547-9.863-3.901s-5.547 6.062-3.9 9.863c3.078 7.106 4.639 14.658 4.639 22.445 0 31.188-25.373 56.561-56.561 56.561s-56.561-25.373-56.561-56.561 25.373-56.56 56.561-56.56c12.499 0 24.352 4.003 34.274 11.578 3.295 2.513 7.999 1.881 10.513-1.412 2.513-3.292 1.881-7.999-1.411-10.512-12.561-9.587-27.56-14.654-43.376-14.654-39.459 0-71.561 32.102-71.561 71.56s32.102 71.561 71.561 71.561 71.561-32.102 71.561-71.561c-.001-9.851-1.977-19.408-5.876-28.407z"></path></g></svg>