<!-- icon666.com - MILLIONS vector ICONS FREE --><svg viewBox="-61 0 512 512" xmlns="http://www.w3.org/2000/svg"><path d="m0 150h36.125c15.4375 55.441406 59.191406 99.894531 113.875 115.664062v36.335938c-24.8125 0-45 20.1875-45 45s20.1875 45 45 45v31.996094c-34.941406 6.347656-65.507812 27.40625-83.851562 58.003906h-36.148438v30h330v-30h-36.148438c-18.335937-30.578125-48.890624-51.652344-83.851562-58.003906v-31.996094c24.8125 0 45-20.1875 45-45s-20.1875-45-45-45v-36.335938c54.636719-15.757812 98.425781-60.179687 113.875-115.664062h36.125v-30h-30.675781c.441406-4.960938.675781-9.964844.675781-15v-75h30v-30h-390v30h30v75c0 5.035156.234375 10.039062.675781 15h-30.675781zm286.632812 332h-183.265624c17.40625-18.921875 42.054687-30 68.714843-30h45.835938c26.660156 0 51.308593 11.078125 68.714843 30zm-76.632812-60h-30v-30h30zm45-75c0 8.269531-6.730469 15-15 15h-90c-8.269531 0-15-6.730469-15-15s6.730469-15 15-15h90c8.269531 0 15 6.730469 15 15zm-45-45h-30v-30.695312c4.960938.453124 9.960938.695312 15 .695312s10.039062-.242188 15-.695312zm-15-60c-58.910156 0-109.121094-38.507812-127.511719-92.011719h255.023438c-18.390625 53.503907-68.601563 92.011719-127.511719 92.011719zm-135-137v-75h270v75c0 5.070312-.28125 10.070312-.8125 15h-268.375c-.53125-4.929688-.8125-9.929688-.8125-15zm0 0"></path><path d="m150 60h90v30h-90zm0 0"></path><path d="m270 60h30v30h-30zm0 0"></path><path d="m90 60h30v30h-30zm0 0"></path></svg>