<!-- icon666.com - MILLIONS vector ICONS FREE --><svg viewBox="0 0 42 60" xmlns="http://www.w3.org/2000/svg"><g id="Page-1" fill="none" fill-rule="evenodd"><g id="021---Star-Medal" fill="rgb(0,0,0)" fill-rule="nonzero"><path id="Shape" d="m42 14.292v-10.292c0-2.209139-1.790861-4-4-4h-34c-2.209139 0-4 1.790861-4 4v10.292c-.00667123 2.0466964 1.24031586 3.8888093 3.143 4.643l15.52 6.207c-.9613699 1.185047-.867079 2.9060731.218 3.979-.1010819.1314932-.1891616.2724877-.263.421l-2.609 5.807h-.007l-6.327-.644c-1.02430579-.1081563-2.01642485.3962106-2.53262852 1.2875208-.51620366.8913103-.45993935 2.00285.14362852 2.8374792l3.714 5.154v.033l-3.709 5.143c-.57447168.7912891-.65906525 1.8371073-.21924062 2.7104403.43982463.8733329 1.33045484 1.4280126 2.30824062 1.4375597.09621224-.0003443.1923417-.0056848.288-.016l6.332-.645h.007l2.606 5.8c.419172.9404619 1.3519088 1.5467573 2.3815553 1.5480533 1.0296466.001296 1.9639066-.6026496 2.3854447-1.5420533l2.609-5.807h.007l6.327.644c1.0243058.1081563 2.0164249-.3962106 2.5326285-1.2875208.5162037-.8913103.4599394-2.00285-.1436285-2.8374792l-3.712-5.149v-.033l3.711-5.143c.6060393-.8328715.6655612-1.9442763.1519432-2.8371117s-1.5043015-1.4000925-2.5289432-1.2948883l-6.334.645h-.007l-2.606-5.8c-.0743758-.1504387-.163478-.2931361-.266-.426 1.0852193-1.0732632 1.1795052-2.7946297.218-3.98l15.52-6.207c1.9037865-.7552674 3.1503371-2.5998924 3.141-4.648zm-21 13.708c-.5522847 0-1-.4477153-1-1s.4477153-1 1-1 1 .4477153 1 1-.4477153 1-1 1zm-7-6.877v-19.123h14v19.123l-7 2.8zm-12-6.831v-10.292c0-1.1045695.8954305-2 2-2h8v18.323l-8.114-3.246c-1.14182082-.4518401-1.89025857-1.5570358-1.886-2.785zm27 29.708c0 4.418278-3.581722 8-8 8s-8-3.581722-8-8 3.581722-8 8-8c4.4164501.0044098 7.9955902 3.5835499 8 8zm-20.1-6.342c-.14453743-.1922312-.15644546-.4534139-.03-.658.12109087-.2077979.35282125-.3252288.592-.3l4.285.436c-1.080295 1.1361268-1.8781245 2.5104899-2.329 4.012zm.559 13.642c-.23878318.0335516-.47290447-.0865106-.585-.3-.12689992-.2071109-.1133909-.4709341.034-.664l2.514-3.482c.4508755 1.5015101 1.248705 2.8758732 2.329 4.012zm12.1 6.341c-.1001855.2179129-.3185976.3570581-.558434.3557652-.2398365-.0012929-.4567357-.1427848-.554566-.3617652l-1.766-3.919c1.5236524.377335 3.1163476.377335 4.64 0zm11.541-7.3c.1445374.1922312.1564455.4534139.03.658-.1174578.2116102-.3518953.330413-.592.3l-4.285-.436c1.080295-1.1361268 1.8781245-2.5104899 2.329-4.012zm-.559-13.641c.2386796-.0329396.472468.0869519.585.3.1268999.2071109.1133909.4709341-.034.664l-2.514 3.482c-.4508755-1.5015101-1.248705-2.8758732-2.329-4.012zm-10.983-6.338 1.762 3.922c-1.5236524-.377335-3.1163476-.377335-4.64 0l1.765-3.928c.1001855-.2179129.3185976-.3570581.558434-.3557652.2398365.0012929.4567357.1427848.554566.3617652zm18.442-16.07c.0042586 1.2279642-.7441792 2.3331599-1.886 2.785l-8.114 3.246v-18.323h8c1.1045695 0 2 .8954305 2 2z"></path><path id="Shape" d="m15 44c0 3.3137085 2.6862915 6 6 6s6-2.6862915 6-6-2.6862915-6-6-6c-3.3123376.0033074-5.9966926 2.6876624-6 6zm10 0c0 2.209139-1.790861 4-4 4s-4-1.790861-4-4 1.790861-4 4-4 4 1.790861 4 4z"></path></g></g></svg>