<!-- icon666.com - MILLIONS vector ICONS FREE --><svg viewBox="0 0 48 48" xmlns="http://www.w3.org/2000/svg"><g id="Line"><path d="m43 7h-38a3 3 0 0 0 -3 3v19h44v-19a3 3 0 0 0 -3-3zm-19 19a1 1 0 0 1 0-2 1 1 0 0 1 0 2zm3.43-2.11a.93.93 0 0 1 -.43.11 1 1 0 0 1 -.89-.55l-.11-.21a2.23 2.23 0 0 0 -4 0l-.11.21a1 1 0 0 1 -1.78-.9l.1-.21a4.24 4.24 0 0 1 7.58 0l.1.21a1 1 0 0 1 -.44 1.34zm3.1-3.06a1 1 0 0 1 -1.38-.28 5.75 5.75 0 0 0 -4.76-2.55h-.78a5.75 5.75 0 0 0 -4.78 2.55 1 1 0 0 1 -.83.45.94.94 0 0 1 -.55-.17 1 1 0 0 1 -.28-1.38 7.72 7.72 0 0 1 6.44-3.45h.78a7.72 7.72 0 0 1 6.44 3.45 1 1 0 0 1 -.28 1.38zm3.16-3.12a1 1 0 0 1 -1.42 0l-.46-.47a11.08 11.08 0 0 0 -15.66 0l-.46.47a1 1 0 0 1 -1.42-1.42l.47-.46a13.06 13.06 0 0 1 18.48 0l.47.46a1 1 0 0 1 .02 1.42z"></path><path d="m2 34a3 3 0 0 0 3 3h13v2h-5a1 1 0 0 0 0 2h22a1 1 0 0 0 0-2h-5v-2h13a3 3 0 0 0 3-3v-3h-44z"></path></g></svg>