<?xml version="1.0" standalone="no"?>
<!DOCTYPE svg PUBLIC "-//W3C//DTD SVG 20010904//EN"
 "http://www.w3.org/TR/2001/REC-SVG-20010904/DTD/svg10.dtd">
<svg version="1.0" xmlns="http://www.w3.org/2000/svg"
 width="978.000000pt" height="980.000000pt" viewBox="0 0 978.000000 980.000000"
 preserveAspectRatio="xMidYMid meet">

<g transform="translate(0.000000,980.000000) scale(0.100000,-0.100000)"
fill="#000000" stroke="none">
<path d="M1912 9775 c-377 -96 -638 -405 -659 -780 -23 -410 242 -769 644
-871 285 -72 592 15 800 228 77 78 112 126 156 215 125 249 125 508 0 759 -82
165 -207 289 -378 374 -198 99 -376 122 -563 75z"/>
<path d="M4157 9326 c-51 -19 -76 -42 -101 -96 -21 -44 -21 -58 -24 -728 l-3
-683 53 -55 c78 -82 132 -158 189 -269 29 -55 53 -101 55 -103 1 -2 24 13 51
34 l48 37 5 741 5 741 2470 0 2470 0 0 -1765 0 -1765 -2470 0 -2470 0 -3 175
c-1 96 -6 178 -11 183 -5 5 -93 -48 -199 -118 l-190 -127 -7 -96 c-9 -108 6
-255 29 -299 24 -46 76 -92 115 -102 21 -5 1137 -12 2713 -16 2476 -6 2681 -6
2734 10 82 24 104 42 136 112 l28 63 0 1989 c0 1119 -4 1992 -9 1995 -4 3 -11
18 -14 34 -7 36 -51 80 -102 103 -38 18 -142 19 -2750 18 -2260 0 -2716 -2
-2748 -13z"/>
<path d="M7085 8488 c-49 -33 -180 -122 -290 -196 -110 -74 -234 -158 -275
-187 -78 -54 -113 -77 -655 -445 -181 -123 -402 -273 -489 -332 -88 -59 -165
-108 -172 -108 -7 0 -34 11 -61 24 -26 13 -73 29 -103 36 -103 23 -217 -18
-384 -139 -45 -32 -155 -109 -246 -170 -147 -99 -200 -127 -200 -103 0 4 -5
57 -10 118 -22 243 -111 437 -272 590 -219 208 -498 316 -888 343 -161 12
-411 13 -479 3 l-44 -7 -184 -299 c-100 -164 -183 -302 -183 -306 0 -11 -35
-40 -48 -40 -13 0 -37 36 -222 340 -79 129 -157 254 -172 278 l-29 42 -147 0
c-375 0 -651 -30 -839 -90 -314 -100 -549 -318 -642 -596 -51 -154 -52 -171
-49 -1409 l3 -1150 23 -57 c28 -70 100 -147 168 -181 101 -51 237 -53 341 -7
61 27 135 100 169 167 l29 58 3 1059 c2 752 6 1063 13 1073 13 15 194 19 216
5 10 -6 13 -682 15 -3228 3 -3053 4 -3222 21 -3271 39 -115 156 -251 250 -291
18 -8 97 -12 231 -12 197 0 203 1 254 26 60 30 145 118 186 194 64 119 60 -39
63 2246 l3 2082 31 6 c44 9 162 7 176 -2 10 -6 13 -458 16 -2077 2 -1549 6
-2083 15 -2120 32 -133 146 -291 243 -335 39 -17 67 -20 246 -20 l202 0 61 36
c100 58 192 187 222 310 9 37 13 828 17 3259 l6 3210 120 0 120 0 6 -370 c3
-238 9 -382 17 -403 45 -131 160 -228 301 -254 49 -9 71 -8 132 7 74 18 150
66 1209 776 144 96 207 191 217 321 4 58 0 85 -16 132 -12 33 -21 64 -21 71 0
6 79 65 176 130 97 66 251 171 342 234 92 62 271 183 397 269 127 85 264 179
305 207 162 111 442 301 479 325 100 63 241 164 241 172 0 7 -70 119 -74 118
-1 0 -41 -28 -91 -62z"/>
</g>
</svg>
