<?xml version="1.0" standalone="no"?>
<!DOCTYPE svg PUBLIC "-//W3C//DTD SVG 20010904//EN"
 "http://www.w3.org/TR/2001/REC-SVG-20010904/DTD/svg10.dtd">
<svg version="1.0" xmlns="http://www.w3.org/2000/svg"
 width="437.000000pt" height="369.000000pt" viewBox="0 0 437.000000 369.000000"
 preserveAspectRatio="xMidYMid meet">

<g transform="translate(0.000000,369.000000) scale(0.100000,-0.100000)"
fill="#000000" stroke="none">
<path d="M3539 3250 c-24 -12 -84 -80 -180 -201 -157 -198 -541 -681 -787
-989 -85 -107 -163 -208 -173 -225 -21 -36 -121 -429 -117 -459 5 -35 41 -30
119 17 41 24 126 74 190 111 l117 67 151 197 c569 741 776 1007 792 1018 16 9
29 -15 29 -56 0 -30 -27 -69 -200 -289 -110 -140 -200 -260 -200 -267 0 -7 10
-20 22 -28 20 -14 24 -14 41 2 24 22 390 490 405 519 20 38 14 102 -14 151
l-26 44 31 42 c71 93 95 176 70 243 -14 38 -67 92 -106 109 -45 20 -121 17
-164 -6z m167 -94 c51 -51 48 -95 -11 -175 -25 -34 -49 -61 -53 -61 -11 0
-162 140 -162 150 0 5 23 34 51 64 47 52 54 56 96 56 38 0 50 -5 79 -34z
m-186 -238 c51 -46 70 -70 64 -80 -8 -13 -112 -148 -444 -578 -96 -124 -204
-264 -240 -311 -171 -226 -213 -279 -220 -279 -13 0 -191 153 -188 161 2 5 51
68 109 141 58 73 266 335 463 581 256 322 360 446 370 440 7 -4 46 -38 86 -75z
m-970 -1247 c36 -29 66 -57 68 -60 3 -8 -227 -135 -233 -129 -3 3 47 219 60
257 6 15 2 18 105 -68z"/>
<path d="M3402 2932 c-8 -6 -6 -13 9 -26 13 -11 25 -14 30 -9 13 13 -23 44
-39 35z"/>
<path d="M3452 2879 c2 -7 10 -15 17 -17 8 -3 12 1 9 9 -2 7 -10 15 -17 17 -8
3 -12 -1 -9 -9z"/>
<path d="M3495 2850 c-10 -17 32 -57 45 -44 7 7 3 17 -14 33 -17 16 -26 19
-31 11z"/>
<path d="M1160 3184 c-19 -2 -73 -9 -119 -15 -116 -16 -121 -22 -121 -148 l0
-98 -72 -5 c-79 -5 -111 -19 -127 -55 -16 -34 -15 -2166 0 -2196 30 -58 16
-57 487 -57 l434 0 52 -45 c29 -24 83 -59 120 -76 63 -29 73 -31 154 -27 101
5 160 30 242 103 l51 45 518 0 518 0 25 25 c14 14 28 42 32 63 3 20 6 314 6
653 0 581 -1 618 -18 639 -16 19 -22 21 -40 11 l-22 -12 -2 -647 -3 -647 -520
-5 c-296 -3 -526 -9 -535 -14 -8 -6 -35 -26 -60 -47 -143 -118 -268 -119 -415
-2 -27 21 -57 43 -65 49 -8 5 -204 11 -450 14 l-435 5 0 1070 0 1070 63 3 62
3 0 -961 c0 -644 3 -968 10 -981 13 -23 34 -24 171 -3 140 21 286 21 374 -1
89 -22 204 -75 342 -159 69 -41 121 -66 139 -66 18 0 64 22 119 55 123 76 280
139 405 166 138 28 337 30 508 5 98 -14 125 -16 137 -6 13 11 15 75 13 479
l-3 466 -30 0 -30 0 -3 -434 -2 -433 -78 8 c-42 5 -169 8 -282 8 -173 -1 -217
-4 -280 -22 -127 -34 -241 -80 -343 -136 l-97 -54 0 1015 0 1016 64 61 c78 75
150 119 269 164 117 44 193 60 347 72 120 11 265 3 370 -19 33 -6 35 -10 40
-51 5 -42 7 -45 35 -45 l30 0 3 72 c2 62 0 73 -16 82 -66 35 -395 53 -558 30
-226 -31 -420 -112 -542 -224 l-72 -67 -52 48 c-121 109 -277 188 -453 229
-98 23 -225 35 -295 29z m202 -89 c113 -19 207 -49 305 -97 80 -39 213 -140
233 -178 11 -20 11 -46 10 -1367 l0 -683 -71 46 c-104 68 -243 131 -339 154
-124 29 -311 27 -472 -6 l-28 -6 0 1062 c0 839 3 1062 13 1065 63 24 239 29
349 10z"/>
</g>
</svg>
