<?xml version="1.0" standalone="no"?>
<!DOCTYPE svg PUBLIC "-//W3C//DTD SVG 20010904//EN"
 "http://www.w3.org/TR/2001/REC-SVG-20010904/DTD/svg10.dtd">
<svg version="1.0" xmlns="http://www.w3.org/2000/svg"
 width="426.000000pt" height="361.000000pt" viewBox="0 0 426.000000 361.000000"
 preserveAspectRatio="xMidYMid meet">

<g transform="translate(0.000000,361.000000) scale(0.100000,-0.100000)"
fill="#000000" stroke="none">
<path d="M1664 3241 c-82 -21 -152 -93 -179 -184 -32 -108 -8 -204 70 -282 75
-76 165 -95 255 -54 160 72 208 285 97 430 -54 72 -161 111 -243 90z m149 -96
c66 -45 100 -149 77 -236 -16 -59 -83 -124 -138 -134 -121 -20 -226 92 -208
222 14 107 82 173 176 173 43 0 64 -6 93 -25z"/>
<path d="M2600 3134 c-86 -37 -150 -137 -150 -236 0 -224 229 -348 389 -211
106 90 122 264 36 378 -57 74 -188 107 -275 69z m170 -77 c110 -58 121 -235
21 -320 -108 -91 -270 -1 -271 151 -1 145 130 233 250 169z"/>
<path d="M1538 2634 c-71 -17 -146 -54 -192 -95 -46 -40 -74 -102 -126 -274
-131 -434 -176 -570 -197 -596 -39 -46 -94 -61 -248 -69 -246 -11 -276 -38
-414 -366 -28 -67 -51 -131 -51 -142 0 -11 12 -34 26 -51 33 -39 92 -43 124
-9 26 28 25 21 -7 -79 -33 -100 -27 -132 27 -149 l35 -12 -4 -139 c-4 -179 10
-212 95 -213 51 0 69 19 94 97 16 51 18 54 19 25 1 -45 25 -98 49 -111 35 -19
89 -13 119 13 27 23 28 27 34 167 4 79 8 147 8 151 1 3 16 11 35 18 48 15 69
43 68 87 -1 20 -19 122 -41 227 -22 105 -41 204 -43 220 -3 32 -9 27 133 116
39 25 96 68 125 95 53 49 56 54 105 200 l50 150 -6 -115 c-3 -63 -17 -362 -31
-665 -28 -600 -28 -603 27 -649 57 -49 156 -23 177 46 13 40 35 206 57 428 16
160 25 209 25 139 0 -97 32 -538 41 -566 31 -98 167 -98 203 -1 15 43 16 57
38 1245 2 72 6 129 9 125 3 -4 16 -54 28 -112 29 -136 52 -183 98 -205 30 -14
42 -15 74 -6 50 15 80 53 139 177 78 167 79 169 -66 -297 -56 -182 -61 -208
-44 -239 11 -20 92 -54 156 -64 l40 -7 -4 -295 c-5 -316 -2 -337 46 -374 28
-22 87 -26 126 -9 41 19 55 66 76 260 20 183 28 227 29 179 2 -52 21 -297 27
-344 12 -90 87 -132 169 -94 54 24 58 48 67 368 5 162 10 300 13 306 2 6 25
15 52 19 26 3 67 15 90 25 61 27 63 49 24 200 -60 233 -121 484 -117 487 1 2
27 -58 56 -133 32 -81 66 -151 83 -171 17 -19 82 -68 145 -110 l114 -75 -6
-77 c-3 -42 -10 -173 -16 -291 -5 -118 -13 -267 -16 -332 -7 -131 2 -176 43
-208 47 -37 135 -22 162 29 6 10 17 62 26 116 9 55 17 101 19 102 2 2 9 -33
15 -79 16 -110 27 -144 58 -168 28 -22 91 -27 124 -10 10 6 26 25 35 43 17 33
17 129 -2 517 -5 111 -5 114 12 85 48 -87 113 -110 171 -61 46 40 38 83 -50
280 -112 251 -143 274 -382 286 -177 10 -239 30 -278 90 -9 14 -65 171 -125
351 -128 382 -138 404 -187 452 -65 64 -129 82 -285 82 -124 0 -139 -2 -190
-26 -101 -47 -130 -93 -271 -419 -32 -74 -59 -133 -59 -130 -1 30 -91 434
-103 461 -61 146 -274 223 -479 173z m252 -73 c145 -45 162 -76 230 -421 28
-140 55 -265 60 -278 17 -40 50 -25 73 33 57 143 222 504 244 534 15 19 51 45
82 60 48 22 69 26 151 26 104 -1 189 -21 234 -56 43 -34 70 -100 188 -457
l111 -337 48 -47 c64 -63 117 -78 299 -87 219 -11 227 -17 335 -269 65 -151
73 -176 56 -186 -23 -14 -45 14 -101 131 -58 117 -63 124 -88 121 l-27 -3 2
-105 c1 -111 20 -512 28 -616 6 -72 -15 -112 -52 -100 -28 9 -29 12 -59 204
-34 225 -39 242 -68 242 -13 0 -28 -6 -34 -13 -6 -7 -23 -100 -38 -207 -26
-190 -38 -230 -69 -230 -7 0 -20 8 -29 19 -15 17 -16 39 -6 282 6 145 15 330
19 410 5 81 6 158 4 173 -6 29 -6 29 -136 114 -135 89 -146 103 -201 243 -80
206 -158 383 -178 404 -15 16 -22 17 -36 8 -37 -23 -6 -222 99 -628 79 -306
75 -285 59 -295 -48 -30 -365 -53 -542 -39 -172 13 -258 31 -258 53 0 8 34
123 76 257 86 278 152 528 156 589 4 50 -19 73 -47 50 -9 -8 -70 -121 -136
-252 -117 -235 -146 -276 -182 -263 -26 10 -32 32 -118 409 -22 99 -43 184
-45 188 -3 4 -16 8 -29 8 -17 0 -26 -7 -29 -22 -3 -13 -10 -315 -16 -673 -6
-357 -12 -699 -15 -760 -2 -60 -5 -138 -5 -172 0 -49 -4 -67 -20 -83 -24 -24
-34 -25 -53 -5 -18 17 -22 62 -42 410 -21 365 -36 538 -48 553 -17 21 -56 15
-61 -10 -7 -33 -42 -336 -71 -623 -14 -137 -28 -265 -31 -283 -7 -37 -36 -62
-65 -55 -40 11 -42 33 -30 307 16 358 59 1216 66 1298 4 52 2 70 -11 82 -35
35 -49 6 -139 -272 -48 -147 -93 -278 -100 -292 -14 -28 -136 -119 -226 -169
-86 -48 -93 -59 -86 -138 3 -38 24 -153 47 -257 43 -199 43 -205 -5 -206 -11
0 -31 -7 -43 -16 -19 -13 -22 -24 -22 -77 0 -141 -12 -256 -28 -262 -35 -13
-45 19 -53 165 -8 147 -15 170 -54 170 -30 0 -41 -16 -50 -70 -18 -121 -47
-246 -59 -258 -22 -23 -48 12 -42 57 3 20 8 86 12 147 6 109 5 112 -17 128
-13 9 -31 16 -41 16 -9 0 -19 4 -22 8 -3 5 12 71 33 148 82 299 84 314 41 314
-22 0 -48 -36 -100 -140 -45 -90 -68 -120 -85 -113 -8 3 -15 11 -15 18 0 24
150 349 172 372 44 47 96 63 205 63 123 0 191 12 261 46 66 32 83 59 123 189
218 712 208 683 255 724 95 84 259 114 394 72z m750 -1463 c0 -35 -49 -530
-55 -555 -8 -35 -41 -48 -71 -28 l-24 15 0 295 0 295 75 0 c71 0 75 -1 75 -22z
m264 -45 c-3 -38 -9 -171 -12 -296 -7 -210 -9 -230 -27 -243 -20 -15 -55 -10
-67 9 -11 18 -50 574 -41 590 2 4 37 7 78 7 l74 0 -5 -67z"/>
<path d="M685 2034 c-163 -89 -159 -319 7 -389 134 -55 268 43 268 196 0 125
-67 200 -184 206 -42 2 -70 -2 -91 -13z m146 -70 c20 -10 38 -32 51 -60 26
-60 17 -114 -27 -163 -31 -33 -38 -36 -89 -36 -47 0 -59 4 -86 30 -37 36 -52
87 -40 138 20 89 112 133 191 91z"/>
<path d="M3462 2036 c-53 -19 -100 -72 -118 -133 -50 -173 113 -326 271 -254
80 36 120 111 113 212 -10 136 -139 221 -266 175z m129 -71 c96 -50 91 -210
-8 -252 -102 -42 -207 57 -174 166 24 83 110 123 182 86z"/>
</g>
</svg>
