<!-- icon666.com - MILLIONS vector ICONS FREE --><svg xmlns="http://www.w3.org/2000/svg" viewBox="0 0 64 64"><g id="Telephone"><path d="M32,48c-5.6074,0-10-3.5142-10-8s4.3926-8,10-8,10,3.5142,10,8S37.6074,48,32,48Zm0-14c-4.4858,0-8,2.6357-8,6s3.5142,6,8,6,8-2.6357,8-6S36.4858,34,32,34Z"></path><path d="M32,44c-3.3643,0-6-1.7568-6-4s2.6357-4,6-4,6,1.7568,6,4S35.3643,44,32,44Zm0-6c-2.29,0-4,1.0557-4,2s1.71,2,4,2,4-1.0557,4-2S34.29,38,32,38Z"></path><path d="M59,52H5a1,1,0,0,1,0-2H59a1,1,0,0,1,0,2Z"></path><path d="M59,58H5a1,1,0,0,1-1-1V51a.999.999,0,0,1,.2085-.6113L21,28.6587V25a1,1,0,0,1,1-1h4a1,1,0,0,1,1,1v3h2V27a1,1,0,0,1,1-1h4a1,1,0,0,1,1,1v1h2V25a1,1,0,0,1,1-1h4a1,1,0,0,1,1,1v3.6587l16.7915,21.73A.999.999,0,0,1,60,51v6A1,1,0,0,1,59,58ZM6,56H58V51.3413l-16.7915-21.73A.999.999,0,0,1,41,29V26H39v3a1,1,0,0,1-1,1H34a1,1,0,0,1-1-1V28H31v1a1,1,0,0,1-1,1H26a1,1,0,0,1-1-1V26H23v3a.999.999,0,0,1-.2085.6113L6,51.3413Z"></path><path d="M7.9961,23.8213A2.0027,2.0027,0,0,1,6,21.8193v-6.63a7.0126,7.0126,0,0,1,4.978-6.7022C15.1631,7.251,23.728,6,32,6S48.8369,7.251,53.022,8.4868A7.0126,7.0126,0,0,1,58,15.189v6.63a2,2,0,0,1-2.3286,1.9732L44.6855,22.1279A1.9967,1.9967,0,0,1,43,20.1528V15.6582A35.476,35.476,0,0,0,32,14a35.5034,35.5034,0,0,0-11.0088,1.6606L21,20.1528a1.9927,1.9927,0,0,1-1.6714,1.9727L8.3145,23.7949A1.935,1.935,0,0,1,7.9961,23.8213ZM32,8c-8.0825,0-16.4082,1.21-20.4556,2.4048A5.0014,5.0014,0,0,0,8,15.189v6.63L19.0146,20.15,19,15.6582a1.9837,1.9837,0,0,1,1.2544-1.8569A37.0146,37.0146,0,0,1,32,12a37.0073,37.0073,0,0,1,11.7451,1.8013A1.9834,1.9834,0,0,1,45,15.6582v4.4946l10.9854,1.6646L56,15.189a5.0014,5.0014,0,0,0-3.5444-4.7842C48.4082,9.21,40.0825,8,32,8Z"></path></g></svg>