<!-- icon666.com - MILLIONS vector ICONS FREE --><svg xmlns="http://www.w3.org/2000/svg" xmlns:xlink="http://www.w3.org/1999/xlink" xml:space="preserve" version="1.1" style="shape-rendering:geometricPrecision; text-rendering:geometricPrecision; image-rendering:optimizeQuality; fill-rule:evenodd; clip-rule:evenodd" viewBox="0 0 7111 7111"><defs><style type="text/css"> .fil0 {fill:black} </style></defs><g id="Layer_x0020_1"><metadata id="CorelCorpID_0Corel-Layer"></metadata><g id="_328930864"><g><path class="fil0" d="M6511 7110l-5909 0c-290,0 -526,-236 -526,-526l0 -5368c0,-290 236,-526 526,-526l255 0c54,0 97,43 97,97 0,54 -43,97 -97,97l-255 0c-183,0 -332,149 -332,332l0 5368c0,183 149,331 332,331l5907 0c184,0 332,-148 332,-331l0 -5368c0,-183 -148,-332 -332,-332l-255 0c-54,0 -97,-43 -97,-97 0,-54 43,-97 97,-97l255 0c290,0 526,236 526,526l0 5368c2,290 -234,526 -524,526zm-926 -6224l-906 0c-54,0 -97,-43 -97,-97 0,-55 43,-98 97,-98l906 0c54,0 97,43 97,98 0,54 -43,97 -97,97zm-1576 0l-905 0c-54,0 -98,-43 -98,-97 0,-55 43,-98 98,-98l905 0c54,0 97,43 97,98 0,54 -43,97 -97,97zm-1576 0l-905 0c-54,0 -97,-43 -97,-97 0,-55 43,-98 97,-98l905 0c54,0 97,43 97,98 0,54 -43,97 -97,97z"></path></g><g><path class="fil0" d="M6940 2227l-6767 0c-54,0 -97,-43 -97,-97 0,-54 43,-97 97,-97l6765 0c54,0 97,43 97,97 0,54 -43,97 -95,97z"></path></g><g><path class="fil0" d="M1193 1574c-239,0 -431,-194 -431,-431l0 -710c0,-239 194,-432 431,-432 238,0 432,195 432,432l0 710c0,238 -194,431 -432,431zm0 -1378c-130,0 -237,107 -237,237l0 710c0,130 107,237 237,237 131,0 238,-107 238,-237l0 -710c0,-130 -107,-237 -238,-237z"></path></g><g><path class="fil0" d="M2769 1574c-239,0 -432,-194 -432,-431l0 -710c0,-239 195,-432 432,-432 237,0 432,195 432,432l0 710c0,238 -195,431 -432,431zm0 -1378c-130,0 -237,107 -237,237l0 710c0,130 107,237 237,237 131,0 237,-107 237,-237l0 -710c0,-130 -106,-237 -237,-237z"></path></g><g><path class="fil0" d="M4343 1574c-238,0 -431,-194 -431,-431l0 -710c0,-239 194,-432 431,-432 238,0 432,195 432,432l0 710c2,238 -193,431 -432,431zm0 -1378c-130,0 -237,107 -237,237l0 710c0,130 107,237 237,237 131,0 238,-107 238,-237l0 -710c1,-130 -106,-237 -238,-237z"></path></g><g><path class="fil0" d="M5919 1574c-239,0 -432,-194 -432,-431l0 -710c0,-239 195,-432 432,-432 238,0 432,195 432,432l0 710c0,238 -193,431 -432,431zm0 -1378c-130,0 -237,107 -237,237l0 710c0,130 107,237 237,237 131,0 238,-107 238,-237l0 -710c0,-130 -106,-237 -238,-237z"></path></g><g><path class="fil0" d="M2080 6286l-624 0c-54,0 -98,-43 -98,-97l0 -870c0,-54 44,-97 98,-97l624 0c55,0 98,43 98,97l0 870c0,54 -43,97 -98,97zm-527 -194l430 0 0 -676 -430 0 0 676z"></path></g><g><path class="fil0" d="M3273 6286l-625 0c-54,0 -97,-43 -97,-97l0 -1434c0,-54 43,-97 97,-97l625 0c54,0 97,43 97,97l0 1434c0,54 -44,97 -97,97zm-529 -194l430 0 0 -1240 -430 0 0 1240z"></path></g><g><path class="fil0" d="M4466 6286l-625 0c-54,0 -97,-43 -97,-97l0 -1966c0,-54 43,-97 97,-97l625 0c54,0 97,43 97,97l0 1966c0,54 -45,97 -97,97zm-529 -194l430 0 0 -1771 -430 0 0 1771z"></path></g><g><path class="fil0" d="M5657 6288l-625 0c-54,0 -97,-43 -97,-97l0 -2483c0,-54 43,-97 97,-97l625 0c54,0 97,43 97,97l0 2483c0,52 -44,97 -97,97zm-528 -195l431 0 0 -2288 -431 0 0 2288z"></path></g><g><path class="fil0" d="M1711 4675c-43,0 -83,-30 -94,-74 -14,-51 18,-106 69,-118 407,-104 959,-349 1515,-669 740,-428 1363,-925 1548,-1239 28,-45 87,-61 133,-34 46,27 61,87 35,133 -204,346 -840,859 -1619,1308 -569,329 -1140,580 -1563,688 -7,5 -16,5 -24,5z"></path></g><g><path class="fil0" d="M4818 3296c-1,0 -1,0 -3,0 -54,-1 -95,-46 -94,-100l13 -426 -396 157c-50,19 -107,-5 -126,-55 -20,-49 4,-106 54,-126l533 -211c30,-12 65,-8 91,11 27,18 42,50 42,82l-17 574c-1,52 -45,94 -97,94z"></path></g><g><path class="fil0" d="M6361 6286l-5609 0c-54,0 -97,-43 -97,-97 0,-54 43,-97 97,-97l5609 0c54,0 97,43 97,97 0,54 -43,97 -97,97z"></path></g></g></g></svg>