<!-- icon666.com - MILLIONS vector ICONS FREE --><svg version="1.1" id="Capa_1" xmlns="http://www.w3.org/2000/svg" xmlns:xlink="http://www.w3.org/1999/xlink" x="0px" y="0px" viewBox="0 0 480 480" style="enable-background:new 0 0 480 480;" xml:space="preserve"><g><g><path d="M472,432h-16V192c0-4.416-3.576-8-8-8h-88v-16c0-2.72-1.384-5.256-3.672-6.728L248,91.632V64h88c4.424,0,8-3.584,8-8V8 c0-4.416-3.576-8-8-8h-96c-4.424,0-8,3.584-8,8v48v35.632l-108.328,69.64C121.384,162.744,120,165.28,120,168v16H32 c-4.424,0-8,3.584-8,8v240H8c-4.424,0-8,3.584-8,8v32c0,4.416,3.576,8,8,8h464c4.424,0,8-3.584,8-8v-32 C480,435.584,476.424,432,472,432z M248,16h80v32h-80V16z M360,200h80v232h-80V200z M136,192v-19.632l104-66.856l104,66.856V192 v240h-64v-72c0-22.056-17.944-40-40-40c-22.056,0-40,17.944-40,40v72h-64V192z M264,360v72h-48v-72c0-13.232,10.768-24,24-24 S264,346.768,264,360z M40,200h80v232H40V200z M464,464H16v-16h16h96h80h64h80h96h16V464z"></path></g></g><g><g><rect x="376" y="216" width="16" height="16"></rect></g></g><g><g><rect x="408" y="216" width="16" height="16"></rect></g></g><g><g><rect x="376" y="248" width="16" height="16"></rect></g></g><g><g><rect x="408" y="248" width="16" height="16"></rect></g></g><g><g><rect x="376" y="280" width="16" height="16"></rect></g></g><g><g><rect x="408" y="280" width="16" height="16"></rect></g></g><g><g><rect x="376" y="312" width="16" height="16"></rect></g></g><g><g><rect x="408" y="312" width="16" height="16"></rect></g></g><g><g><rect x="376" y="344" width="16" height="16"></rect></g></g><g><g><rect x="408" y="344" width="16" height="16"></rect></g></g><g><g><rect x="56" y="216" width="16" height="16"></rect></g></g><g><g><rect x="88" y="216" width="16" height="16"></rect></g></g><g><g><rect x="56" y="248" width="16" height="16"></rect></g></g><g><g><rect x="88" y="248" width="16" height="16"></rect></g></g><g><g><rect x="56" y="280" width="16" height="16"></rect></g></g><g><g><rect x="88" y="280" width="16" height="16"></rect></g></g><g><g><rect x="56" y="312" width="16" height="16"></rect></g></g><g><g><rect x="88" y="312" width="16" height="16"></rect></g></g><g><g><rect x="56" y="344" width="16" height="16"></rect></g></g><g><g><rect x="88" y="344" width="16" height="16"></rect></g></g><g><g><path d="M240,144c-30.872,0-56,25.12-56,56s25.128,56,56,56s56-25.12,56-56S270.872,144,240,144z M240,240 c-22.056,0-40-17.944-40-40c0-22.056,17.944-40,40-40c22.056,0,40,17.944,40,40C280,222.056,262.056,240,240,240z"></path></g></g><g><g><path d="M232,168v24h-16v16h24c4.424,0,8-3.584,8-8v-32H232z"></path></g></g></svg>