<!-- icon666.com - MILLIONS vector ICONS FREE --><svg viewBox="-80 0 512 512" xmlns="http://www.w3.org/2000/svg"><path d="m158.539062 385.601562v-81.402343c0-1.910157-.367187-3.800781-1.078124-5.570313l-21.230469-53.097656 35.800781 8.957031c2.390625.589844 4.890625.589844 7.277344 0l35.800781-8.957031-21.230469 53.097656c-.707031 1.769532-1.078125 3.660156-1.078125 5.570313v81.402343zm0 0"></path><path d="m271 415.601562c0 17.976563-14.289062 32.609376-32.128906 33.167969h-126.402344c-17.839844-.558593-32.128906-15.191406-32.128906-33.167969zm0 0"></path><path d="m351.339844 175.671875c0 40.316406-14.03125 79.707031-39.488282 110.917969-23.132812 28.199218-37.101562 62.878906-40.152343 99.011718h-48.898438v-78.511718l31.058594-77.648438c2.101563-5.230468 1.082031-11.191406-2.621094-15.441406-3.707031-4.238281-9.476562-6.050781-14.9375-4.691406l-60.628906 15.160156-60.632813-15.160156c-5.460937-1.359375-11.230468.453125-14.9375 4.691406-3.703124 4.25-4.722656 10.210938-2.621093 15.441406l31.058593 77.648438v78.511718h-48.828124c-3.050782-36.140624-17.03125-70.832031-40.152344-99.011718-25.507813-31.179688-39.558594-70.570313-39.558594-110.917969 0-96.871094 78.808594-175.671875 175.671875-175.671875 96.859375 0 175.667969 78.800781 175.667969 175.671875zm0 0"></path><path d="m120.050781 478.800781c10.695313 19.753907 31.613281 33.199219 55.621094 33.199219 23.996094 0 44.914063-13.445312 55.609375-33.199219zm0 0"></path></svg>