<!-- icon666.com - MILLIONS vector ICONS FREE --><svg id="Layer_1" enable-background="new 0 0 1550 1550" viewBox="0 0 1550 1550" xmlns="http://www.w3.org/2000/svg"><g><g><g><path d="m573.4 1270.3c-11.6 0-21-9.4-21-21v-449.8c0-11.6 9.4-21 21-21s21 9.4 21 21v449.8c0 11.6-9.4 21-21 21z"></path></g><g><g><path d="m775 858.1c-6.1 0-11.9-2.7-15.9-7.3l-68.1-79c-3.3-3.8-5.1-8.7-5.1-13.7v-60.5c0-11.6 9.4-21 21-21s21 9.4 21 21v52.7l47.1 54.7 47.1-54.7v-52.7c0-11.6 9.4-21 21-21s21 9.4 21 21v60.5c0 5-1.8 9.9-5.1 13.7l-68.1 79c-4 4.7-9.8 7.3-15.9 7.3z"></path></g><g><path d="m848.2 908.8c-4.2 0-8.4-1.3-11.9-3.7l-61.3-42.4-61.3 42.4c-4.8 3.3-10.9 4.5-16.6 3.2s-10.7-4.9-13.6-10l-62.4-109c-5.8-10.1-2.3-22.9 7.8-28.7s22.9-2.3 28.7 7.8l51.1 89.1 54.4-37.6c7.2-5 16.7-5 23.9 0l54.4 37.6 51.1-89.1c5.8-10.1 18.6-13.5 28.7-7.8s13.5 18.6 7.8 28.7l-62.4 109c-2.9 5.1-7.8 8.7-13.6 10-1.7.3-3.2.5-4.8.5z"></path></g><g><g><path d="m935.5 546.1c-11.6 0-21-9.4-21-21v-63.9c0-76.6-62.3-139.2-139-139.5-.2 0-.3 0-.5 0-36.6 0-71.3 14.5-97.8 40.8-26.9 26.8-41.7 62.3-41.7 99.9v62.7c0 11.6-9.4 21-21 21s-21-9.4-21-21v-62.7c0-48.9 19.2-94.9 54.1-129.7 34.3-34.2 79.6-53 127.4-53h.6c48.3.2 93.8 19.1 127.9 53.4s52.9 79.8 52.9 128.1v63.9c.1 11.6-9.3 21-20.9 21z"></path></g><g><path d="m775 739.8c-77.1 0-139.8-62.7-139.8-139.8v-107.5c0-5.7 2.3-11.1 6.4-15.1s9.6-6.1 15.2-5.9c1.2 0 122.9 2.9 173.7-47.9 4.1-4.1 9.6-6.3 15.4-6.1s11.2 2.7 15.1 7l48.4 54.1c3.5 3.9 5.4 8.8 5.4 14v107.4c0 77.1-62.7 139.8-139.8 139.8zm-97.8-226.6v86.8c0 53.9 43.9 97.8 97.8 97.8s97.8-43.9 97.8-97.8v-99.5l-29.5-32.9c-51.1 36.7-128.6 44.2-166.1 45.6z"></path></g><g><path d="m656.2 623.8h-16.9c-35.2 0-63.8-28.6-63.8-63.8s28.6-63.8 63.8-63.8h16.9c11.6 0 21 9.4 21 21s-9.4 21-21 21h-16.9c-12 0-21.8 9.8-21.8 21.8s9.8 21.8 21.8 21.8h16.9c11.6 0 21 9.4 21 21s-9.4 21-21 21z"></path></g><g><path d="m910.7 623.8h-16.9c-11.6 0-21-9.4-21-21s9.4-21 21-21h16.9c12 0 21.8-9.8 21.8-21.8s-9.8-21.8-21.8-21.8h-16.9c-11.6 0-21-9.4-21-21s9.4-21 21-21h16.9c35.2 0 63.8 28.6 63.8 63.8s-28.6 63.8-63.8 63.8z"></path></g></g><g><path d="m1062.2 1270.3h-574.4c-24 0-43.5-19.5-43.5-43.5v-294.5c0-33.6 10.5-65.7 30.5-92.7 19.9-27 47.5-46.6 79.6-56.5l146.9-45.4c11.1-3.4 22.8 2.8 26.3 13.9 3.4 11.1-2.8 22.8-13.9 26.3l-146.9 45.4c-48.1 14.9-80.4 58.7-80.4 109.1v294.5c0 .8.7 1.5 1.5 1.5h574.4c.8 0 1.5-.7 1.5-1.5v-294.5c0-50.4-32.3-94.2-80.4-109.1l-146.9-45.4c-11.1-3.4-17.3-15.2-13.9-26.3s15.2-17.3 26.3-13.9l146.9 45.4c32.1 9.9 59.6 29.5 79.6 56.5 19.9 27 30.5 59.1 30.5 92.7v294.5c-.2 24-19.7 43.5-43.7 43.5z"></path></g><g><g><path d="m780.4 1270.3c-1.8 0-3.6-.2-5.4-.7-8.4 2.3-17.6-.9-22.8-8.5l-57.8-84.9c-3-4.5-4.2-9.9-3.4-15.3l.7-3.9 38.9-251c1.6-10.2 10.4-17.8 20.8-17.8h47.4c10.4 0 19.2 7.6 20.8 17.8l38.9 251 .7 3.9c.2 1.1.3 2.3.3 3.5 0 4.2-1.3 8.3-3.6 11.8l-57.8 84.9c-4.4 6-11 9.2-17.7 9.2zm-46.6-110.8 41.2 60.5 41.2-60.5-35.5-229.3h-11.4z"></path></g><g><path d="m798.7 930.2h-47.4c-8.7 0-16.6-5.4-19.7-13.6l-16.6-44.1c-4.1-10.9 1.4-23 12.3-27.1s23 1.4 27.1 12.3l11.5 30.5h18.3l11.5-30.5c4.1-10.9 16.2-16.3 27.1-12.3 10.9 4.1 16.3 16.2 12.3 27.1l-16.6 44.1c-3.2 8.1-11.1 13.6-19.8 13.6z"></path></g></g><g><path d="m977.7 1270.3c-11.6 0-21-9.4-21-21v-449.8c0-11.6 9.4-21 21-21s21 9.4 21 21v449.8c0 11.6-9.4 21-21 21z"></path></g></g></g><g><g><g><g><path d="m1253.6 849.2c-6.1 0-11.9-2.7-15.9-7.3l-58.4-67.7c-3.3-3.8-5.1-8.7-5.1-13.7v-51.8c0-11.6 9.4-21 21-21s21 9.4 21 21v44l37.4 43.4 37.4-43.4v-44c0-11.6 9.4-21 21-21s21 9.4 21 21v51.8c0 5-1.8 9.9-5.1 13.7l-58.4 67.7c-4 4.7-9.8 7.3-15.9 7.3z"></path></g><g><path d="m1316.3 892.6c-4.2 0-8.4-1.3-11.9-3.7l-50.8-35.1-50.8 35.1c-4.8 3.3-10.8 4.5-16.6 3.2-5.7-1.3-10.7-4.9-13.6-10l-53.5-93.4c-5.8-10.1-2.3-22.9 7.8-28.7s22.9-2.3 28.7 7.8l42.1 73.6 43.9-30.4c7.2-5 16.7-5 23.9 0l43.9 30.4 42.1-73.6c5.8-10.1 18.6-13.5 28.7-7.8 10.1 5.8 13.5 18.6 7.8 28.7l-53.5 93.4c-2.9 5.1-7.8 8.7-13.6 10-1.5.4-3 .5-4.6.5z"></path></g><g><g><path d="m1391.1 581.9c-11.6 0-21-9.4-21-21v-54.8c0-64-52.1-116.3-116.1-116.5-.1 0-.3 0-.4 0-30.6 0-59.6 12.1-81.7 34.1-22.5 22.4-34.9 52.1-34.9 83.5v53.7c0 11.6-9.4 21-21 21s-21-9.4-21-21v-53.7c0-42.7 16.8-82.9 47.2-113.3 30-29.9 69.5-46.3 111.3-46.3h.6c42.2.2 81.9 16.7 111.7 46.6s46.2 69.7 46.2 111.9v54.8c.1 11.6-9.3 21-20.9 21z"></path></g><g><path d="m1253.6 747.9c-67.7 0-122.8-55.1-122.8-122.8v-92.2c0-5.7 2.3-11.1 6.4-15.1s9.6-6.1 15.2-5.9c28.8.8 111.3-4.8 146.7-40.2 4.1-4.1 9.7-6.3 15.4-6.1 5.8.2 11.2 2.7 15.1 7l41.5 46.3c3.5 3.9 5.4 8.8 5.4 14v92.1c-.1 67.8-55.2 122.9-122.9 122.9zm-80.8-194.4v71.5c0 44.6 36.3 80.8 80.8 80.8s80.8-36.3 80.8-80.8v-84.1l-22.7-25.4c-43.2 29.7-106.1 36.6-138.9 38z"></path></g><g><path d="m1151.8 648.5h-14.5c-31.8 0-57.7-25.9-57.7-57.7s25.9-57.7 57.7-57.7h14.5c11.6 0 21 9.4 21 21s-9.4 21-21 21h-14.5c-8.6 0-15.7 7-15.7 15.7s7 15.7 15.7 15.7h14.5c11.6 0 21 9.4 21 21s-9.4 21-21 21z"></path></g><g><path d="m1369.9 648.5h-14.5c-11.6 0-21-9.4-21-21s9.4-21 21-21h14.5c8.6 0 15.7-7 15.7-15.7 0-8.6-7-15.7-15.7-15.7h-14.5c-11.6 0-21-9.4-21-21s9.4-21 21-21h14.5c31.8 0 57.7 25.9 57.7 57.7s-25.9 57.7-57.7 57.7z"></path></g></g><g><path d="m1028.1 843.3c-5.9 0-11.7-2.4-15.9-7.2-7.6-8.8-6.7-22 2.1-29.6 14.4-12.5 31-21.7 49.2-27.4l125.4-38.8h.1l.5-.1c11.1-3.4 22.8 2.9 26.2 14s-2.9 22.8-14 26.2l-.4.1-125.4 38.7c-12.7 3.9-24.1 10.3-34.1 18.9-3.9 3.5-8.8 5.2-13.7 5.2z"></path></g><g><path d="m1499.7 1202.5h-415c-11.6 0-21-9.4-21-21s9.4-21 21-21h413.3v-250.7c0-41.8-26.9-78.2-66.8-90.6l-125.8-38.9c-11.1-3.4-17.4-15.1-14-26.2s15.1-17.4 26.2-14l.5.1h.1l125.4 38.8c28.1 8.7 52.2 25.8 69.7 49.5s26.7 51.8 26.7 81.2v252.4c0 22.3-18.1 40.4-40.3 40.4z"></path></g><g><g><path d="m1258.2 1202.5c-1.6 0-3.1-.2-4.6-.5-8.2 1.9-17-1.3-22-8.7l-49.5-72.8c-3-4.5-4.2-9.9-3.4-15.3l.6-3.4 33.3-215.1c1.6-10.2 10.4-17.8 20.8-17.8h40.6c10.4 0 19.2 7.6 20.8 17.8l33.3 215.1.6 3.4c.2 1.1.3 2.3.3 3.5 0 4.2-1.3 8.3-3.6 11.8l-49.5 72.8c-4.4 5.9-11 9.2-17.7 9.2zm-36.8-98.7 32.2 47.2 32.2-47.2-29.8-192.8h-4.6z"></path></g><g><path d="m1273.9 911h-40.6c-8.7 0-16.6-5.4-19.7-13.6l-14.2-37.8c-4.1-10.9 1.4-23 12.3-27.1s23 1.4 27.1 12.3l9.1 24.2h11.5l9.1-24.2c4.1-10.9 16.2-16.3 27.1-12.3 10.9 4.1 16.3 16.2 12.3 27.1l-14.2 37.8c-3.2 8.2-11.1 13.6-19.8 13.6z"></path></g></g><g><path d="m1427.3 1202.5c-11.6 0-21-9.4-21-21v-385.5c0-11.6 9.4-21 21-21s21 9.4 21 21v385.4c0 11.7-9.4 21.1-21 21.1z"></path></g></g></g><g><g><path d="m123.7 1202.5c-11.6 0-21-9.4-21-21v-385.5c0-11.6 9.4-21 21-21s21 9.4 21 21v385.4c0 11.7-9.4 21.1-21 21.1z"></path></g><g><g><path d="m296.4 849.2c-6.1 0-11.9-2.7-15.9-7.3l-58.4-67.7c-3.3-3.8-5.1-8.7-5.1-13.7v-51.8c0-11.6 9.4-21 21-21s21 9.4 21 21v44l37.4 43.4 37.4-43.4v-44c0-11.6 9.4-21 21-21s21 9.4 21 21v51.8c0 5-1.8 9.9-5.1 13.7l-58.4 67.7c-4 4.7-9.8 7.3-15.9 7.3z"></path></g><g><path d="m359.2 892.6c-4.2 0-8.4-1.3-11.9-3.7l-50.8-35.1-50.8 35.1c-4.8 3.3-10.9 4.5-16.6 3.2s-10.7-4.9-13.6-10l-53.5-93.4c-5.8-10.1-2.3-22.9 7.8-28.7s22.9-2.3 28.7 7.8l42.1 73.6 43.9-30.4c7.2-5 16.7-5 23.9 0l43.9 30.4 42.1-73.6c5.8-10.1 18.6-13.5 28.7-7.8 10.1 5.8 13.5 18.6 7.8 28.7l-53.5 93.4c-2.9 5.1-7.8 8.7-13.6 10-1.5.4-3.1.5-4.6.5z"></path></g><g><g><path d="m434 581.9c-11.6 0-21-9.4-21-21v-54.8c0-64-52.1-116.3-116.1-116.5-.1 0-.3 0-.4 0-30.6 0-59.6 12.1-81.7 34.1-22.5 22.4-34.9 52.1-34.9 83.5v53.7c0 11.6-9.4 21-21 21s-21-9.4-21-21v-53.7c0-42.7 16.8-82.9 47.2-113.3 30-29.9 69.5-46.3 111.3-46.3h.6c42.2.2 81.9 16.7 111.7 46.6s46.2 69.7 46.2 111.9v54.8c.1 11.6-9.4 21-20.9 21z"></path></g><g><path d="m296.4 747.9c-67.7 0-122.8-55.1-122.8-122.8v-92.2c0-5.7 2.3-11.1 6.4-15.1s9.6-6.1 15.2-5.9c28.8.8 111.3-4.8 146.7-40.2 4.1-4.1 9.7-6.3 15.4-6.1 5.8.2 11.2 2.7 15.1 7l41.5 46.3c3.5 3.9 5.4 8.8 5.4 14v92.1c-.1 67.8-55.2 122.9-122.9 122.9zm-80.8-194.4v71.5c0 44.6 36.3 80.8 80.8 80.8s80.8-36.3 80.8-80.8v-84.1l-22.7-25.4c-43.2 29.7-106.1 36.6-138.9 38z"></path></g><g><path d="m194.6 648.5h-14.5c-31.8 0-57.7-25.9-57.7-57.7s25.9-57.7 57.7-57.7h14.5c11.6 0 21 9.4 21 21s-9.4 21-21 21h-14.5c-8.6 0-15.7 7-15.7 15.7s7 15.7 15.7 15.7h14.5c11.6 0 21 9.4 21 21s-9.4 21-21 21z"></path></g><g><path d="m412.7 648.5h-14.5c-11.6 0-21-9.4-21-21s9.4-21 21-21h14.5c8.6 0 15.7-7 15.7-15.7 0-8.6-7-15.7-15.7-15.7h-14.5c-11.6 0-21-9.4-21-21s9.4-21 21-21h14.5c31.8 0 57.7 25.9 57.7 57.7s-25.9 57.7-57.7 57.7z"></path></g></g><g><path d="m465.3 1202.5h-415c-22.2 0-40.3-18.1-40.3-40.3v-252.4c0-29.4 9.2-57.5 26.7-81.2s41.6-40.8 69.7-49.5l125.4-38.8h.1l.5-.1c11.1-3.4 22.8 2.9 26.2 14s-2.9 22.8-14 26.2l-.4.1-125.4 38.7c-40 12.4-66.8 48.8-66.8 90.6v250.7h413.3c11.6 0 21 9.4 21 21s-9.4 21-21 21z"></path></g><g><path d="m521.9 843.3c-4.9 0-9.8-1.7-13.8-5.1-10-8.7-21.4-15-34.1-18.9l-125.8-38.9c-11.1-3.4-17.4-15.1-14-26.2s15.1-17.4 26.2-14l.5.1h.1l125.4 38.8c18.3 5.6 34.8 14.8 49.2 27.4 8.8 7.6 9.7 20.9 2.1 29.6-4.1 4.7-9.9 7.2-15.8 7.2z"></path></g><g><g><path d="m301.1 1202.5c-1.6 0-3.1-.2-4.6-.5-8.2 1.9-17-1.3-22-8.7l-49.5-72.8c-3-4.5-4.2-9.9-3.4-15.3l.6-3.4 33.3-215.1c1.6-10.2 10.4-17.8 20.8-17.8h40.6c10.4 0 19.2 7.6 20.8 17.8l33.3 215.1.6 3.4c.2 1.1.3 2.3.3 3.5 0 4.2-1.3 8.3-3.6 11.8l-49.5 72.8c-4.4 5.9-11 9.2-17.7 9.2zm-36.8-98.7 32.2 47.2 32.2-47.2-30-192.8h-4.6z"></path></g><g><path d="m316.7 911h-40.6c-8.7 0-16.6-5.4-19.7-13.6l-14.2-37.8c-4.1-10.9 1.4-23 12.3-27.1s23 1.4 27.1 12.3l9.1 24.2h11.5l9.1-24.2c4.1-10.9 16.2-16.3 27.1-12.3 10.9 4.1 16.3 16.2 12.3 27.1l-14.2 37.8c-3.2 8.2-11 13.6-19.8 13.6z"></path></g></g></g></g></g></g></svg>