<!-- icon666.com - MILLIONS vector ICONS FREE --><svg enable-background="new 0 0 550 550" viewBox="0 0 550 550" xmlns="http://www.w3.org/2000/svg"><g id="_x34_399_-_Police_Uniform"><g><g><path d="m443.285 530.875h-336.565c-3.314 0-6-2.687-6-6v-458.954c0-2.753 1.874-5.153 4.545-5.821l80.474-20.118 27.373-19.725c1.021-.736 2.249-1.132 3.508-1.132h116.768c1.259 0 2.486.396 3.508 1.132l27.372 19.725 80.472 20.118c2.671.667 4.545 3.067 4.545 5.821v458.954c0 3.313-2.686 6-6 6zm-330.565-12h324.565v-448.27l-77.047-19.261c-.738-.185-1.436-.508-2.053-.953l-26.735-19.266h-112.895l-26.736 19.266c-.618.445-1.314.769-2.053.953l-77.046 19.261z"></path></g><g><path d="m443.291 275.901c-2 0-3.955-1-5.094-2.821-1.757-2.81-.902-6.512 1.908-8.268l76.841-48.026-78.955-148.041c-1.56-2.924-.453-6.559 2.471-8.118 2.919-1.559 6.557-.454 8.117 2.47l81.592 152.985c1.484 2.783.561 6.24-2.114 7.912l-81.592 50.995c-.988.617-2.088.912-3.174.912z"></path></g><g><path d="m106.714 275.901c-1.086 0-2.185-.295-3.174-.913l-81.592-50.995c-2.674-1.671-3.598-5.128-2.114-7.912l81.592-152.985c1.56-2.923 5.192-4.032 8.118-2.47 2.924 1.559 4.03 5.194 2.47 8.118l-78.956 148.043 76.842 48.026c2.81 1.756 3.664 5.458 1.908 8.268-1.139 1.82-3.094 2.82-5.094 2.82z"></path></g><g><path d="m243.13 136.757c-.351 0-.703-.031-1.054-.093-1.643-.293-3.09-1.257-3.993-2.661l-54.819-85.234c-1.792-2.787-.986-6.5 1.801-8.292s6.5-.986 8.292 1.801l51.322 79.796 22.126-16.689-52.841-76.86c-1.877-2.73-1.186-6.466 1.545-8.343 2.731-1.876 6.467-1.185 8.343 1.545l56.094 81.592c1.819 2.646 1.233 6.255-1.331 8.189l-31.872 24.041c-1.048.789-2.318 1.208-3.613 1.208z"></path></g><g><path d="m300.5 136.757c-1.523 0-2.998-.58-4.116-1.634l-25.498-24.041c-2.153-2.03-2.504-5.327-.828-7.765l56.094-81.592c1.877-2.729 5.613-3.422 8.344-1.545 2.73 1.877 3.422 5.613 1.545 8.343l-53.182 77.355 16.767 15.808 57.193-79.663c1.934-2.692 5.682-3.307 8.373-1.375 2.692 1.933 3.308 5.682 1.375 8.373l-61.193 85.234c-1.009 1.406-2.576 2.307-4.299 2.473-.192.02-.384.029-.575.029z"></path></g><g><path d="m106.716 143.315c-2.639 0-5.057-1.754-5.785-4.423-.872-3.197 1.013-6.495 4.21-7.367l112.188-30.597c3.196-.872 6.495 1.013 7.367 4.21s-1.013 6.495-4.21 7.367l-112.188 30.597c-.528.145-1.059.213-1.582.213z"></path></g><g><path d="m433.094 133.116c-.356 0-.717-.032-1.08-.098l-112.19-20.398c-3.261-.593-5.423-3.716-4.83-6.977.594-3.261 3.714-5.421 6.977-4.83l112.189 20.398c3.261.593 5.423 3.716 4.83 6.977-.527 2.898-3.052 4.928-5.896 4.928z"></path></g><g><path d="m275.002 530.875c-3.314 0-6-2.687-6-6v-418.158c0-3.313 2.686-6 6-6s6 2.687 6 6v418.158c0 3.313-2.686 6-6 6z"></path></g><g><path d="m239.31 194.31c-.4 0-.79-.04-1.18-.12-.38-.08-.76-.19-1.12-.34s-.71-.34-1.03-.55c-.33-.22-.64-.47-.92-.75-1.11-1.12-1.75-2.66-1.75-4.24s.64-3.13 1.75-4.24c.28-.28.59-.53.92-.75.32-.22.67-.4 1.03-.55s.74-.27 1.12-.34c.78-.16 1.57-.16 2.35 0 .38.07.76.19 1.12.34s.71.33 1.04.55.63.47.91.75c1.12 1.11 1.76 2.66 1.76 4.24s-.64 3.12-1.76 4.24c-.28.28-.58.53-.91.75-.33.21-.68.4-1.04.55s-.74.26-1.12.34c-.39.08-.78.12-1.17.12z"></path></g><g><path d="m239.31 245.3c-.4 0-.79-.04-1.18-.11-.38-.08-.76-.2-1.12-.35s-.71-.33-1.03-.55c-.33-.22-.64-.47-.92-.74-.27-.28-.52-.59-.74-.92-.22-.32-.4-.67-.55-1.03s-.27-.74-.35-1.12c-.07-.39-.11-.79-.11-1.18 0-1.58.64-3.12 1.75-4.24.28-.28.59-.53.92-.75.32-.21.67-.4 1.03-.55s.74-.26 1.12-.34c.78-.15 1.57-.15 2.35 0 .38.08.76.19 1.12.34s.71.34 1.04.55c.33.22.63.47.91.75 1.12 1.12 1.76 2.66 1.76 4.24 0 .39-.04.79-.12 1.18-.08.38-.19.76-.34 1.12s-.34.71-.55 1.03c-.22.33-.47.64-.75.92-.28.27-.58.52-.91.74s-.68.4-1.04.55-.74.27-1.12.35c-.39.07-.78.11-1.17.11z"></path></g><g><path d="m239.31 296.3c-.39 0-.79-.04-1.18-.12-.38-.08-.76-.189-1.12-.34s-.71-.34-1.03-.55c-.33-.221-.64-.471-.92-.75-1.11-1.12-1.75-2.66-1.75-4.24 0-.39.04-.79.11-1.17.08-.39.2-.76.35-1.13.15-.36.33-.71.55-1.03.22-.33.47-.64.74-.91.28-.279.59-.529.92-.75.32-.22.67-.399 1.03-.55s.74-.27 1.12-.34c.78-.16 1.58-.16 2.35 0 .38.07.76.189 1.12.34.36.15.71.33 1.04.55.33.221.63.471.91.75.28.271.53.58.75.91.21.32.4.67.55 1.03.15.37.26.74.34 1.13.08.38.12.78.12 1.17 0 1.58-.64 3.12-1.76 4.24-.28.279-.59.529-.91.75-.33.21-.68.399-1.04.55-.36.15-.74.26-1.12.34-.39.08-.78.12-1.17.12z"></path></g><g><path d="m239.31 347.29c-.4 0-.79-.04-1.18-.12-.38-.07-.76-.19-1.12-.34s-.71-.33-1.03-.55c-.33-.221-.64-.471-.92-.75-1.11-1.11-1.75-2.66-1.75-4.24 0-.391.04-.78.11-1.17.08-.38.2-.761.35-1.12.15-.36.33-.71.55-1.04s.47-.63.74-.91c.28-.28.59-.53.92-.75.32-.21.67-.4 1.03-.55s.74-.26 1.12-.34c.78-.15 1.57-.15 2.35 0 .38.08.76.189 1.12.34.36.149.71.34 1.04.55.33.22.63.47.91.75s.53.58.75.91c.21.33.4.68.55 1.04.15.359.26.74.34 1.12.08.39.12.779.12 1.17 0 .39-.04.79-.12 1.18-.08.38-.19.76-.34 1.12s-.34.71-.56 1.03c-.21.33-.46.64-.74.91-.28.279-.58.529-.91.75-.33.22-.68.399-1.04.55-.36.149-.74.27-1.12.34-.39.08-.78.12-1.17.12z"></path></g><g><path d="m239.31 398.29c-.39 0-.79-.04-1.18-.12-.38-.08-.76-.19-1.12-.34s-.71-.34-1.03-.55c-.33-.221-.64-.471-.92-.75-1.11-1.12-1.75-2.66-1.75-4.24 0-.391.04-.79.11-1.17.08-.391.2-.761.35-1.13.15-.36.33-.71.55-1.03.22-.33.47-.641.74-.91.28-.28.59-.53.92-.75.32-.22.67-.4 1.03-.55s.74-.271 1.12-.351c.78-.149 1.58-.149 2.35 0 .38.08.76.2 1.12.351.36.149.71.33 1.04.55s.63.47.91.75c.28.27.53.58.74.91.22.32.41.67.56 1.03.15.369.26.739.34 1.13.08.38.12.779.12 1.17 0 1.58-.64 3.12-1.76 4.24-.28.279-.59.529-.91.75-.33.21-.68.399-1.04.55-.36.149-.74.26-1.12.34-.39.08-.78.12-1.17.12z"></path></g><g><path d="m239.31 449.28c-.39 0-.79-.04-1.18-.11-.38-.08-.76-.2-1.12-.351-.36-.149-.71-.329-1.03-.55-.33-.22-.64-.47-.92-.739-1.11-1.12-1.75-2.671-1.75-4.25 0-.391.04-.78.11-1.171.08-.38.2-.76.35-1.119.15-.36.33-.71.55-1.04s.47-.631.74-.91c.28-.28.59-.53.92-.75.32-.21.67-.4 1.03-.55s.74-.261 1.12-.341c1.95-.39 4.02.25 5.42 1.641.27.279.53.58.74.91.22.33.41.68.56 1.04.15.359.26.739.34 1.119.08.391.12.78.12 1.171 0 1.579-.64 3.13-1.76 4.25-.28.27-.59.52-.91.739-.33.221-.68.4-1.04.55s-.74.271-1.12.351c-.39.07-.78.11-1.17.11z"></path></g><g><path d="m198.51 204.508h-50.995c-3.313 0-6-2.687-6-6s2.687-6 6-6h50.995c3.313 0 6 2.687 6 6s-2.686 6-6 6z"></path></g><g><path d="m402.489 204.508h-50.994c-3.313 0-6-2.687-6-6s2.687-6 6-6h50.994c3.313 0 6 2.687 6 6s-2.686 6-6 6z"></path></g></g></g></svg>